<svg xmlns="http://www.w3.org/2000/svg" viewBox="0 0 24 24" fill="none">
  <circle cx="12" cy="12" r="3.2" fill="#e8eaed" stroke="#5f6368" stroke-width="1.5"/>
  <path d="M12 2.5A1.5 1.5 0 0 1 13.5 4v.6a6.5 6.5 0 0 1 1.8.74l.43-.43a1.5 1.5 0 0 1 2.12 2.12l-.43.43A6.5 6.5 0 0 1 18.15 9H19.5a1.5 1.5 0 0 1 0 3h-.6a6.5 6.5 0 0 1-.74 1.8l.43.43a1.5 1.5 0 0 1-2.12 2.12l-.43-.43A6.5 6.5 0 0 1 14.15 18v.35A1.5 1.5 0 0 1 12 19.5a1.5 1.5 0 0 1-1.5-1.5v-.35a6.5 6.5 0 0 1-1.8-.74l-.43.43a1.5 1.5 0 0 1-2.12-2.12l.43-.43A6.5 6.5 0 0 1 5.85 13H4.5a1.5 1.5 0 0 1 0-3h.35a6.5 6.5 0 0 1 .74-1.8l-.43-.43A1.5 1.5 0 0 1 7.28 5.65l.43.43A6.5 6.5 0 0 1 9.5 5.35V4A1.5 1.5 0 0 1 12 2.5z" fill="#e8eaed" stroke="#5f6368" stroke-width="1.5" stroke-linejoin="round"/>
</svg>
