<svg xmlns="http://www.w3.org/2000/svg" viewBox="0 0 400 160" fill="none">
  <defs>
    <linearGradient id="lcBg" x1="0" y1="0" x2="1" y2="1">
      <stop offset="0%" stop-color="#ffffff"/>
      <stop offset="100%" stop-color="#f8faff"/>
    </linearGradient>
    <radialGradient id="lcOrb" cx="90%" cy="10%" r="40%">
      <stop offset="0%" stop-color="#eff6ff" stop-opacity="1"/>
      <stop offset="100%" stop-color="#eff6ff" stop-opacity="0"/>
    </radialGradient>
  </defs>
  <rect width="400" height="160" rx="16" fill="url(#lcBg)"/>
  <rect width="400" height="160" rx="16" fill="url(#lcOrb)"/>
  <!-- Subtle dot grid -->
  <circle cx="20" cy="20" r="1" fill="#dbeafe" opacity="0.8"/>
  <circle cx="60" cy="20" r="1" fill="#dbeafe" opacity="0.8"/>
  <circle cx="100" cy="20" r="1" fill="#dbeafe" opacity="0.8"/>
  <circle cx="140" cy="20" r="1" fill="#dbeafe" opacity="0.8"/>
  <circle cx="180" cy="20" r="1" fill="#dbeafe" opacity="0.8"/>
  <circle cx="220" cy="20" r="1" fill="#dbeafe" opacity="0.8"/>
  <circle cx="260" cy="20" r="1" fill="#dbeafe" opacity="0.8"/>
  <circle cx="300" cy="20" r="1" fill="#dbeafe" opacity="0.8"/>
  <circle cx="340" cy="20" r="1" fill="#dbeafe" opacity="0.8"/>
  <circle cx="380" cy="20" r="1" fill="#dbeafe" opacity="0.8"/>
  <circle cx="20" cy="60" r="1" fill="#dbeafe" opacity="0.8"/>
  <circle cx="60" cy="60" r="1" fill="#dbeafe" opacity="0.8"/>
  <circle cx="100" cy="60" r="1" fill="#dbeafe" opacity="0.8"/>
  <circle cx="140" cy="60" r="1" fill="#dbeafe" opacity="0.8"/>
  <circle cx="180" cy="60" r="1" fill="#dbeafe" opacity="0.8"/>
  <circle cx="220" cy="60" r="1" fill="#dbeafe" opacity="0.8"/>
  <circle cx="260" cy="60" r="1" fill="#dbeafe" opacity="0.8"/>
  <circle cx="300" cy="60" r="1" fill="#dbeafe" opacity="0.8"/>
  <circle cx="340" cy="60" r="1" fill="#dbeafe" opacity="0.8"/>
  <circle cx="380" cy="60" r="1" fill="#dbeafe" opacity="0.8"/>
  <circle cx="20" cy="100" r="1" fill="#dbeafe" opacity="0.8"/>
  <circle cx="60" cy="100" r="1" fill="#dbeafe" opacity="0.8"/>
  <circle cx="100" cy="100" r="1" fill="#dbeafe" opacity="0.8"/>
  <circle cx="140" cy="100" r="1" fill="#dbeafe" opacity="0.8"/>
  <circle cx="180" cy="100" r="1" fill="#dbeafe" opacity="0.8"/>
  <circle cx="220" cy="100" r="1" fill="#dbeafe" opacity="0.8"/>
  <circle cx="260" cy="100" r="1" fill="#dbeafe" opacity="0.8"/>
  <circle cx="300" cy="100" r="1" fill="#dbeafe" opacity="0.8"/>
  <circle cx="340" cy="100" r="1" fill="#dbeafe" opacity="0.8"/>
  <circle cx="380" cy="100" r="1" fill="#dbeafe" opacity="0.8"/>
  <circle cx="20" cy="140" r="1" fill="#dbeafe" opacity="0.8"/>
  <circle cx="60" cy="140" r="1" fill="#dbeafe" opacity="0.8"/>
  <circle cx="100" cy="140" r="1" fill="#dbeafe" opacity="0.8"/>
  <circle cx="140" cy="140" r="1" fill="#dbeafe" opacity="0.8"/>
  <circle cx="180" cy="140" r="1" fill="#dbeafe" opacity="0.8"/>
  <circle cx="220" cy="140" r="1" fill="#dbeafe" opacity="0.8"/>
  <circle cx="260" cy="140" r="1" fill="#dbeafe" opacity="0.8"/>
  <circle cx="300" cy="140" r="1" fill="#dbeafe" opacity="0.8"/>
  <circle cx="340" cy="140" r="1" fill="#dbeafe" opacity="0.8"/>
  <circle cx="380" cy="140" r="1" fill="#dbeafe" opacity="0.8"/>
  <!-- Border -->
  <rect width="400" height="160" rx="16" fill="none" stroke="#dbeafe" stroke-width="1"/>
</svg>
