<svg xmlns="http://www.w3.org/2000/svg" viewBox="0 0 200 80" fill="none">
  <defs>
    <linearGradient id="bg" x1="0" y1="0" x2="200" y2="80" gradientUnits="userSpaceOnUse">
      <stop offset="0%" stop-color="#f8faff"/>
      <stop offset="100%" stop-color="#f0f4ff"/>
    </linearGradient>
  </defs>
  <rect width="200" height="80" rx="12" fill="url(#bg)"/>
  <!-- Bull silhouette (left, green) -->
  <g transform="translate(14, 15) scale(0.38)" opacity="0.85">
    <path d="M20 60 Q10 50 12 35 Q14 20 28 18 Q32 8 40 10 Q48 8 52 18 Q66 20 68 35 Q70 50 60 60 L58 70 L22 70 Z" fill="#00c48c"/>
    <path d="M28 18 Q20 10 14 14 Q8 18 10 26" stroke="#00c48c" stroke-width="4" stroke-linecap="round" fill="none"/>
    <path d="M52 18 Q60 10 66 14 Q72 18 70 26" stroke="#00c48c" stroke-width="4" stroke-linecap="round" fill="none"/>
    <!-- horns -->
    <path d="M10 26 Q4 20 6 14 Q10 8 14 12" fill="#00a67e"/>
    <path d="M70 26 Q76 20 74 14 Q70 8 66 12" fill="#00a67e"/>
  </g>
  <!-- Bear silhouette (right, red) -->
  <g transform="translate(115, 10) scale(0.38)" opacity="0.85">
    <circle cx="40" cy="18" r="12" fill="#ff5252"/>
    <circle cx="26" cy="12" r="7" fill="#ff5252"/>
    <circle cx="54" cy="12" r="7" fill="#ff5252"/>
    <rect x="20" y="26" width="40" height="38" rx="12" fill="#ff5252"/>
    <rect x="22" y="58" width="10" height="16" rx="5" fill="#ff5252"/>
    <rect x="48" y="58" width="10" height="16" rx="5" fill="#ff5252"/>
    <circle cx="33" cy="16" r="2" fill="#fff" opacity="0.9"/>
    <circle cx="47" cy="16" r="2" fill="#fff" opacity="0.9"/>
    <path d="M35 24 Q40 28 45 24" stroke="#fff" stroke-width="1.5" stroke-linecap="round" fill="none" opacity="0.8"/>
  </g>
  <!-- VS text -->
  <text x="100" y="46" text-anchor="middle" font-size="11" font-weight="800" fill="#1a237e" font-family="Arial,sans-serif" opacity="0.6">VS</text>
  <!-- Bottom labels -->
  <text x="34" y="72" text-anchor="middle" font-size="8" font-weight="700" fill="#00c48c" font-family="Arial,sans-serif">多头</text>
  <text x="166" y="72" text-anchor="middle" font-size="8" font-weight="700" fill="#ff5252" font-family="Arial,sans-serif">空头</text>
</svg>
