<svg xmlns="http://www.w3.org/2000/svg" viewBox="0 0 48 48" fill="none">
  <defs>
    <linearGradient id="evBg" x1="0" y1="0" x2="1" y2="1">
      <stop offset="0%" stop-color="#052e16"/>
      <stop offset="100%" stop-color="#064e3b"/>
    </linearGradient>
    <linearGradient id="evAccent" x1="0" y1="0" x2="1" y2="0">
      <stop offset="0%" stop-color="#34d399"/>
      <stop offset="100%" stop-color="#059669"/>
    </linearGradient>
  </defs>
  <circle cx="24" cy="24" r="22" fill="url(#evBg)"/>
  <circle cx="24" cy="24" r="21" fill="none" stroke="#065f46" stroke-width="0.8"/>
  <!-- Car body -->
  <path d="M8 28 Q8 24 12 24 L14 20 Q16 17 20 17 L28 17 Q32 17 34 20 L36 24 Q40 24 40 28 L40 32 Q40 34 38 34 L10 34 Q8 34 8 32 Z" fill="#1a3a2a" stroke="url(#evAccent)" stroke-width="1.2"/>
  <!-- Windows -->
  <path d="M15 24 Q16 19 20 19 L28 19 Q32 19 33 24 Z" fill="#0d2818" stroke="#10b981" stroke-width="0.8" opacity="0.9"/>
  <!-- Window divider -->
  <line x1="24" y1="19" x2="24" y2="24" stroke="#10b981" stroke-width="0.8" opacity="0.7"/>
  <!-- Wheels -->
  <circle cx="16" cy="34" r="4.5" fill="#0f172a" stroke="#334155" stroke-width="1"/>
  <circle cx="16" cy="34" r="2" fill="#1e293b" stroke="#34d399" stroke-width="0.8"/>
  <circle cx="32" cy="34" r="4.5" fill="#0f172a" stroke="#334155" stroke-width="1"/>
  <circle cx="32" cy="34" r="2" fill="#1e293b" stroke="#34d399" stroke-width="0.8"/>
  <!-- Lightning bolt (EV) -->
  <path d="M22 22 L20 25 L23 25 L21 28 L26 24 L23 24 L25 22 Z" fill="#34d399" opacity="0.9"/>
</svg>
