<svg xmlns="http://www.w3.org/2000/svg" viewBox="0 0 48 48" fill="none">
  <defs>
    <linearGradient id="oilBg" x1="0" y1="0" x2="1" y2="1">
      <stop offset="0%" stop-color="#1c1917"/>
      <stop offset="100%" stop-color="#292524"/>
    </linearGradient>
    <linearGradient id="oilGold" x1="0" y1="0" x2="0" y2="1">
      <stop offset="0%" stop-color="#fbbf24"/>
      <stop offset="100%" stop-color="#b45309"/>
    </linearGradient>
  </defs>
  <circle cx="24" cy="24" r="22" fill="url(#oilBg)"/>
  <circle cx="24" cy="24" r="21" fill="none" stroke="#44403c" stroke-width="0.8"/>
  <!-- Oil drop shape -->
  <path d="M24 10 Q32 18 32 26 A8 8 0 0 1 16 26 Q16 18 24 10Z" fill="url(#oilGold)"/>
  <!-- Shine on drop -->
  <path d="M21 17 Q20 21 20.5 25" stroke="#fef3c7" stroke-width="1.2" stroke-linecap="round" opacity="0.5"/>
  <!-- Pump silhouette -->
  <rect x="12" y="34" width="5" height="6" rx="1" fill="#57534e"/>
  <rect x="10" y="32" width="9" height="3" rx="1" fill="#78716c"/>
  <path d="M17 32 L20 28 L26 28 L26 32" stroke="#57534e" stroke-width="1.5" fill="none" stroke-linejoin="round"/>
  <rect x="24" y="24" width="4" height="8" rx="1" fill="#57534e"/>
  <!-- Ground line -->
  <line x1="8" y1="40" x2="40" y2="40" stroke="#44403c" stroke-width="0.8"/>
</svg>
