<svg xmlns="http://www.w3.org/2000/svg" viewBox="0 0 28 28" fill="none">
  <defs>
    <linearGradient id="sg" x1="0" y1="0" x2="1" y2="1">
      <stop offset="0%" stop-color="#475569"/>
      <stop offset="100%" stop-color="#1e293b"/>
    </linearGradient>
  </defs>
  <!-- Outer gear ring -->
  <path d="M14 3.5 L15.5 6.2 A8.5 8.5 0 0 1 18.8 7.6 L21.8 6.9 L24.1 9.2 L23.4 12.2 A8.5 8.5 0 0 1 24.5 15.5 L27.2 17 L26.5 20.2 L23.5 20.5 A8.5 8.5 0 0 1 21.5 23.2 L22.2 26.2 L19.2 27.5 L17 25.2 A8.5 8.5 0 0 1 14 25.8 A8.5 8.5 0 0 1 11 25.2 L8.8 27.5 L5.8 26.2 L6.5 23.2 A8.5 8.5 0 0 1 4.5 20.5 L1.5 20.2 L0.8 17 L3.5 15.5 A8.5 8.5 0 0 1 4.6 12.2 L3.9 9.2 L6.2 6.9 L9.2 7.6 A8.5 8.5 0 0 1 12.5 6.2 Z" fill="url(#sg)" stroke="#475569" stroke-width="0.5"/>
  <!-- Inner circle -->
  <circle cx="14" cy="16" r="5" fill="#0f172a" stroke="#334155" stroke-width="1.2"/>
  <circle cx="14" cy="16" r="2.2" fill="none" stroke="#60a5fa" stroke-width="1.5"/>
  <circle cx="14" cy="16" r="0.8" fill="#60a5fa"/>
</svg>
